<svg width="59" height="71" viewBox="0 0 59 71" fill="none" xmlns="http://www.w3.org/2000/svg">
<path d="M1.27903 0.00013722C0.778603 0.0845466 0.350532 0.416151 0.13951 0.8804C-0.0715118 1.33862 -0.0413666 1.88124 0.217889 2.31535L7.74232 15.4831L9.09285 27.6862C9.09888 27.7826 9.11697 27.8791 9.14109 27.9756V28.1203V28.1685L10.8293 43.4103C8.50802 44.8995 6.75353 47.2449 6.10238 50.0665V50.163L3.1119 69.2152C3.03955 69.6674 3.17219 70.1196 3.46762 70.4633C3.76908 70.813 4.20318 71.0059 4.65537 70.9999H50.6219C51.0681 70.9938 51.4901 70.7888 51.7735 70.4452C52.0629 70.1075 52.1895 69.6553 52.1171 69.2152L49.1749 50.163C49.1628 50.1328 49.1448 50.0967 49.1267 50.0665C48.4755 47.2509 46.7512 44.8995 44.448 43.4103L45.1715 37.0435H49.609C52.6959 37.0435 55.3307 34.7524 55.7346 31.6896L57.9534 14.7114C58.4297 11.0396 55.5297 7.7175 51.8277 7.7175H48.4032L49.0784 1.73654C49.1327 1.29641 48.994 0.850252 48.6986 0.518648C48.4032 0.187042 47.9811 -0.00589158 47.535 0.00013722H1.56843C1.52019 0.00013722 1.47196 0.00013722 1.42373 0.00013722C1.37549 0.00013722 1.32726 0.00013722 1.27903 0.00013722ZM4.22127 3.08708H45.7986L41.5058 41.6739H13.7715L13.2409 37.0435H18.5466C19.1013 37.0495 19.6198 36.7601 19.9032 36.2778C20.1805 35.7954 20.1805 35.2046 19.9032 34.7222C19.6198 34.2399 19.1013 33.9505 18.5466 33.9565H12.9033L12.3727 29.3261H18.5466C19.1013 29.3321 19.6198 29.0427 19.9032 28.5604C20.1805 28.0781 20.1805 27.4872 19.9032 27.0049C19.6198 26.5225 19.1013 26.2331 18.5466 26.2392H12.0351L11.5528 21.6087H18.5466C19.1013 21.6148 19.6198 21.3254 19.9032 20.843C20.1805 20.3607 20.1805 19.7698 19.9032 19.2875C19.6198 18.8052 19.1013 18.5158 18.5466 18.5218H11.1669L10.781 14.8561C10.7629 14.633 10.6966 14.422 10.5881 14.229L4.22127 3.08708ZM48.0655 10.8044H51.8277C53.7149 10.8044 55.1619 12.4022 54.9147 14.2773L52.6959 31.2555C52.4909 32.805 51.1706 33.9565 49.609 33.9565H45.5092L48.0655 10.8044ZM16.6655 44.7608H38.6118C42.175 44.7608 45.2378 47.1906 46.088 50.6453L48.789 67.9129H6.48824L9.14109 50.7418C9.949 47.2328 13.0661 44.7608 16.6655 44.7608ZM27.8075 49.3912C23.5448 49.3912 20.0901 52.846 20.0901 57.1086C20.0901 61.3712 23.5448 64.826 27.8075 64.826C32.0701 64.826 35.5248 61.3712 35.5248 57.1086C35.5248 52.846 32.0701 49.3912 27.8075 49.3912ZM27.8075 52.4782C28.947 52.4782 29.99 52.9002 30.7979 53.5876L23.2735 57.9286C23.2253 57.6573 23.177 57.392 23.177 57.1086C23.177 54.5583 25.2571 52.4782 27.8075 52.4782ZM32.3414 56.2886C32.3896 56.56 32.4379 56.8252 32.4379 57.1086C32.4379 59.659 30.3578 61.739 27.8075 61.739C26.6679 61.739 25.6249 61.317 24.817 60.6297L32.3414 56.2886Z" fill="black"/>
</svg>
