<svg width="211" height="243" viewBox="0 0 211 243" fill="none" xmlns="http://www.w3.org/2000/svg">
<path d="M10.55 31.65V73.85V94.95V126.6V137.15V147.7V158.25V211C10.55 222.605 19.9965 232.1 31.65 232.1H105.5H179.35C191.008 232.1 200.45 222.605 200.45 211V158.25V147.7V137.15V126.6V94.95V73.85V31.65C200.45 43.255 191.008 52.75 179.35 52.75H105.5H31.65C19.9965 52.75 10.55 43.255 10.55 31.65Z" fill="#BDC3C7"/>
<path d="M10.55 42.2001V84.4001V91.7846C13.657 93.8946 17.2492 94.9501 21.1 94.9501H42.2H94.95H116.05H168.8H189.9C193.751 94.9501 197.338 93.8946 200.45 91.7846V84.4001V42.2001C200.45 53.8051 191.008 63.3001 179.35 63.3001H105.5H31.65C19.9965 63.3001 10.55 53.8051 10.55 42.2001Z" fill="#95A5A6"/>
<path d="M105.5 84.4H93.3042L72.8604 119.214L91.3208 129.764L105.5 105.5L116.05 123.435L106.819 128.71L135.831 137.15L143.417 107.61L134.185 112.885L117.696 84.4H117.369H105.5ZM78.4656 137.15L49.4531 145.589L58.6844 150.864L41.8708 179.35L54.0687 200.45H94.95V179.35H66.2667L76.8167 161.414L86.0458 166.689L78.4656 137.15ZM151.656 143.48L133.521 154.03L147.7 179.35H126.6V168.8L105.5 189.9L126.6 211V200.45H159.896H160.233L172.092 179.35L151.656 143.48Z" fill="#3890C1"/>
<path d="M10.55 211V221.55C10.55 233.155 19.9965 242.65 31.65 242.65H105.5H179.35C191.008 242.65 200.45 233.155 200.45 221.55V211C200.45 222.605 191.008 232.1 179.35 232.1H105.5H31.65C19.9965 232.1 10.55 222.605 10.55 211Z" fill="#95A5A6"/>
<path d="M21.1 0C9.44647 0 0 9.495 0 21.1V31.65V42.2V52.75V63.3C0 74.905 9.44647 84.4 21.1 84.4H42.2H94.95H116.05H168.8H189.9C201.558 84.4 211 74.905 211 63.3V52.75V42.2V31.65V21.1C211 9.495 201.558 0 189.9 0H168.8H116.05H94.95H42.2H21.1Z" fill="#BDC3C7"/>
<path d="M31.65 10.55C25.8232 10.55 21.1 14.77 21.1 21.1V31.65V42.2V52.75C21.1 58.025 25.8232 63.3 31.65 63.3H179.35C185.174 63.3 189.9 58.025 189.9 52.75V42.2V31.65V21.1C189.9 14.77 185.174 10.55 179.35 10.55H31.65Z" fill="#7F8C8D"/>
<path d="M105.5 84.4H93.3042L87.3645 94.95H123.635L117.696 84.4H117.369H105.5Z" fill="#7F8C8D"/>
</svg>
