<svg width="125" height="120" viewBox="0 0 125 120" fill="none" xmlns="http://www.w3.org/2000/svg">
<rect width="125" height="120" rx="20" fill="#3890C1"/>
<path d="M27.6097 13.0002C26.9799 13.1064 26.4412 13.5237 26.1756 14.108C25.91 14.6847 25.9479 15.3676 26.2742 15.9139L35.7438 32.4858L37.4435 47.8435C37.4511 47.965 37.4739 48.0864 37.5042 48.2078V48.3899V48.4506L39.6288 67.6326C36.7075 69.5068 34.4994 72.4585 33.68 76.0096V76.131L29.9164 100.109C29.8253 100.678 29.9923 101.247 30.3641 101.679C30.7435 102.119 31.2898 102.362 31.8589 102.355H89.7086C90.2701 102.347 90.8012 102.089 91.1579 101.657C91.5221 101.232 91.6814 100.663 91.5904 100.109L87.8875 76.131C87.8723 76.0931 87.8496 76.0476 87.8268 76.0096C87.0073 72.4661 84.8372 69.5068 81.9386 67.6326L82.8492 59.6199H88.4338C92.3188 59.6199 95.6347 56.7365 96.1431 52.8819L98.9354 31.5145C99.5348 26.8935 95.8851 22.7126 91.2261 22.7126H86.9163L87.7661 15.1855C87.8344 14.6316 87.6599 14.0701 87.2881 13.6527C86.9163 13.2354 86.3851 12.9926 85.8236 13.0002H27.9739C27.9132 13.0002 27.8525 13.0002 27.7918 13.0002C27.7311 13.0002 27.6704 13.0002 27.6097 13.0002ZM31.3125 16.8851H83.6383L78.2358 65.4473H43.3317L42.664 59.6199H49.3413C50.0393 59.6275 50.6919 59.2633 51.0485 58.6562C51.3976 58.0492 51.3976 57.3056 51.0485 56.6986C50.6919 56.0915 50.0393 55.7273 49.3413 55.7349H42.239L41.5713 49.9074H49.3413C50.0393 49.915 50.6919 49.5508 51.0485 48.9438C51.3976 48.3368 51.3976 47.5931 51.0485 46.9861C50.6919 46.3791 50.0393 46.0149 49.3413 46.0225H41.1464L40.5394 40.195H49.3413C50.0393 40.2026 50.6919 39.8384 51.0485 39.2313C51.3976 38.6243 51.3976 37.8807 51.0485 37.2737C50.6919 36.6667 50.0393 36.3024 49.3413 36.31H40.0537L39.5681 31.6966C39.5454 31.4159 39.4619 31.1503 39.3253 30.9075L31.3125 16.8851ZM86.4913 26.5976H91.2261C93.6011 26.5976 95.4222 28.6084 95.1111 30.9682L92.3188 52.3356C92.0608 54.2856 90.3991 55.7349 88.4338 55.7349H83.2741L86.4913 26.5976ZM46.9739 69.3323H74.5936C79.078 69.3323 82.9326 72.3902 84.0025 76.738L87.4019 98.4696H34.1656L37.5042 76.8595C38.521 72.4433 42.4439 69.3323 46.9739 69.3323ZM60.9962 75.1598C55.6316 75.1598 51.2837 79.5076 51.2837 84.8722C51.2837 90.2368 55.6316 94.5847 60.9962 94.5847C66.3608 94.5847 70.7086 90.2368 70.7086 84.8722C70.7086 79.5076 66.3608 75.1598 60.9962 75.1598ZM60.9962 79.0448C62.4303 79.0448 63.743 79.5759 64.7598 80.4409L55.2901 85.9042C55.2294 85.5627 55.1687 85.2288 55.1687 84.8722C55.1687 81.6626 57.7865 79.0448 60.9962 79.0448ZM66.7022 83.8403C66.7629 84.1817 66.8236 84.5156 66.8236 84.8722C66.8236 88.0819 64.2058 90.6997 60.9962 90.6997C59.5621 90.6997 58.2494 90.1685 57.2326 89.3035L66.7022 83.8403Z" fill="black"/>
</svg>
