<svg width="42" height="35" viewBox="0 0 42 35" fill="none" xmlns="http://www.w3.org/2000/svg">
<path d="M5.60954 34.0681H36.3905C40.1062 34.0681 42 32.2102 42 28.53V9.82566C42 6.14554 40.1062 4.30545 36.3905 4.30545H32.21C30.8167 4.30545 30.3879 4.01961 29.584 3.12636L28.137 1.51851C27.2616 0.535999 26.3505 0 24.4925 0H17.3824C15.5423 0 14.6312 0.535999 13.738 1.51851L12.2909 3.12636C11.5049 4.0017 11.0583 4.30545 9.66483 4.30545H5.60954C1.89368 4.30545 0 6.14554 0 9.82566V28.53C0 32.2102 1.89368 34.0681 5.60954 34.0681ZM5.66313 31.1918C3.89453 31.1918 2.87627 30.245 2.87627 28.3871V9.98641C2.87627 8.12848 3.89453 7.18164 5.66313 7.18164H10.3794C11.9873 7.18164 12.8448 6.87797 13.738 5.87754L15.1493 4.30545C16.1676 3.1621 16.6856 2.87627 18.2756 2.87627H23.5994C25.1893 2.87627 25.7074 3.1621 26.7256 4.30545L28.137 5.87754C29.0302 6.87797 29.8877 7.18164 31.4956 7.18164H36.337C38.1056 7.18164 39.1239 8.12848 39.1239 9.98641V28.3871C39.1239 30.245 38.1056 31.1918 36.337 31.1918H5.66313ZM20.9911 28.3514C26.404 28.3514 30.7452 24.0102 30.7452 18.5793C30.7452 13.1484 26.422 8.8074 20.9911 8.8074C15.596 8.8074 11.2548 13.1484 11.2548 18.5793C11.2548 24.0102 15.596 28.3514 20.9911 28.3514ZM33.8359 14.2204C35.0506 14.2204 36.051 13.2378 36.051 12.023C36.051 10.7903 35.0506 9.80774 33.8359 9.80774C32.6209 9.80774 31.6206 10.7903 31.6206 12.023C31.6206 13.2378 32.6209 14.2204 33.8359 14.2204ZM20.9911 25.6359C17.1145 25.6359 13.9524 22.4918 13.9524 18.5793C13.9524 14.6669 17.0966 11.5228 20.9911 11.5228C24.8856 11.5228 28.0476 14.6669 28.0476 18.5793C28.0476 22.4918 24.8856 25.6359 20.9911 25.6359Z" fill="black"/>
</svg>
