<svg width="54" height="75" viewBox="0 0 54 75" fill="none" xmlns="http://www.w3.org/2000/svg">
<path d="M4.55776 0C2.09537 0 0.0658004 2.02957 0.0658004 4.49196V27.9812C-0.0219335 28.2736 -0.0219335 28.5777 0.0658004 28.8702V65.882C0.0658004 68.3444 2.09537 70.374 4.55776 70.374V71.8713C4.55776 73.509 5.9147 74.866 7.5524 74.866H12.0444C13.682 74.866 15.039 73.509 15.039 71.8713V70.374H38.9961V71.8713C38.9961 73.509 40.353 74.866 41.9907 74.866H46.4827C48.1204 74.866 49.4773 73.509 49.4773 71.8713V70.374C51.9397 70.374 53.9693 68.3444 53.9693 65.882V28.7298C54.0102 28.531 54.0102 28.3204 53.9693 28.1215V4.49196C53.9693 2.02957 51.9397 0 49.4773 0H4.55776ZM4.55776 2.99464H49.4773C50.3196 2.99464 50.9747 3.64972 50.9747 4.49196V26.9517H3.06044V4.49196C3.06044 3.64972 3.71552 2.99464 4.55776 2.99464ZM10.4067 8.93713C10.3423 8.94882 10.278 8.96637 10.2195 8.98392C9.52348 9.14184 9.03217 9.76767 9.04972 10.4812V20.9625C9.04387 21.5006 9.32461 22.0036 9.79253 22.2785C10.2604 22.5475 10.8336 22.5475 11.3015 22.2785C11.7695 22.0036 12.0502 21.5006 12.0444 20.9625V10.4812C12.0619 10.0484 11.8864 9.63314 11.5764 9.3407C11.2606 9.04241 10.8336 8.89618 10.4067 8.93713ZM3.06044 29.9464H50.9747V65.882C50.9747 66.7243 50.3196 67.3794 49.4773 67.3794H4.55776C3.71552 67.3794 3.06044 66.7243 3.06044 65.882V29.9464ZM10.4067 34.3916C10.3423 34.4033 10.278 34.4208 10.2195 34.4383C9.52348 34.5963 9.03217 35.2221 9.04972 35.9357V46.4169C9.04387 46.955 9.32461 47.458 9.79253 47.7329C10.2604 48.002 10.8336 48.002 11.3015 47.7329C11.7695 47.458 12.0502 46.955 12.0444 46.4169V35.9357C12.0619 35.5028 11.8864 35.0876 11.5764 34.7951C11.2606 34.4968 10.8336 34.3506 10.4067 34.3916ZM7.5524 70.374H12.0444V71.8713H7.5524V70.374ZM41.9907 70.374H46.4827V71.8713H41.9907V70.374Z" fill="black"/>
</svg>
