<svg width="125" height="120" viewBox="0 0 125 120" fill="none" xmlns="http://www.w3.org/2000/svg">
<rect width="125" height="120" rx="20" fill="#27AE60"/>
<path d="M83.8438 14H43.1562C38.3609 14 34.4375 17.9234 34.4375 22.7188V98.2812C34.4375 103.077 38.3609 107 43.1562 107H83.8438C88.6391 107 92.5625 103.077 92.5625 98.2812V22.7188C92.5625 17.9234 88.6391 14 83.8438 14ZM63.5 101.188C60.2857 101.188 57.6875 98.5893 57.6875 95.375C57.6875 92.1607 60.2857 89.5625 63.5 89.5625C66.7143 89.5625 69.3125 92.1607 69.3125 95.375C69.3125 98.5893 66.7143 101.188 63.5 101.188ZM86.75 83.75H40.25V25.625H86.75V83.75Z" fill="black"/>
</svg>
