<svg width="362" height="462" viewBox="0 0 362 462" fill="none" xmlns="http://www.w3.org/2000/svg">
<path d="M31.7896 222.46H330.148V322.605H31.7905L31.7896 222.46ZM309.371 243.237H52.5664V301.829H309.371V243.237ZM49.9279 301.829H312.01L289.009 461.396H72.9277L49.9279 301.829ZM288.033 322.605H73.9053L90.8589 440.619H271.059L288.033 322.605ZM350.573 82.8379H362V93.2265C361.658 152.588 334.407 205.517 291.838 240.477L291.504 240.743L288.637 243.091H193.062L201.872 227.571C215.775 203.466 223.979 174.556 223.979 143.73V143.495V143.507V129.857L227.781 126.74C260.935 99.4437 303.815 82.8794 350.564 82.8383H350.573L350.573 82.8379ZM281.073 222.46C315.063 193.354 337.422 151.517 340.715 104.423L340.745 103.885C304.231 106.058 271.159 119.214 244.365 140.059L244.755 139.767V143.865C244.755 172.346 238.517 199.37 227.333 223.644L227.822 222.459L281.073 222.46ZM216.935 243.236H144.963L141.992 237.939C126.377 210.751 117.168 178.164 117.168 143.426C117.168 90.2589 138.742 42.13 173.612 7.31531L173.614 7.31353L180.969 0L188.324 7.35504C221.027 40.0191 242.035 84.3855 244.528 133.636L244.547 134.096C244.776 137.711 244.776 140.578 244.776 143.611V143.78C244.776 178.461 235.523 210.981 219.352 239.007L219.843 238.085L216.935 243.236ZM157.242 222.46H204.717C216.852 199.649 223.978 172.58 223.978 143.848V143.488V143.507C223.978 140.64 223.978 138.188 223.79 135.196V135.092C221.729 94.4759 205.855 57.9203 180.813 29.6782L180.969 29.8567C154.267 59.9541 137.959 99.7981 137.959 143.451C137.959 172.32 145.092 199.524 157.691 223.396L157.241 222.46H157.242ZM168.814 243.237H73.3643L70.4972 240.889C27.3266 205.464 0 152.105 0 92.3636V92.1793V92.1882V81.8H10.5971C57.8333 81.842 101.112 98.7581 134.736 126.846L134.428 126.596L138.396 129.899L138.146 135.073C138.029 137.459 137.962 140.255 137.962 143.066C137.962 174.193 146.209 203.394 160.636 228.603L160.191 227.759L168.814 243.237ZM80.8657 222.46H134.179C123.446 199.173 117.187 171.93 117.187 143.225C117.187 141.863 117.201 140.505 117.228 139.149L117.226 139.352C90.8401 118.572 57.7293 105.221 21.6134 102.934L21.1112 102.908C24.1671 150.922 46.6157 193.158 80.6327 222.264L80.8662 222.46L80.8657 222.46Z" fill="#27AE60"/>
</svg>
