<svg width="67" height="67" viewBox="0 0 67 67" fill="none" xmlns="http://www.w3.org/2000/svg">
<path d="M48.1562 0H18.8438C15.3891 0 12.5625 2.82656 12.5625 6.28125V60.7188C12.5625 64.1734 15.3891 67 18.8438 67H48.1562C51.6109 67 54.4375 64.1734 54.4375 60.7188V6.28125C54.4375 2.82656 51.6109 0 48.1562 0ZM33.5 62.8125C31.1843 62.8125 29.3125 60.9407 29.3125 58.625C29.3125 56.3093 31.1843 54.4375 33.5 54.4375C35.8157 54.4375 37.6875 56.3093 37.6875 58.625C37.6875 60.9407 35.8157 62.8125 33.5 62.8125ZM50.25 50.25H16.75V8.375H50.25V50.25Z" fill="black"/>
</svg>
