<svg width="125" height="120" viewBox="0 0 125 120" fill="none" xmlns="http://www.w3.org/2000/svg">
<rect width="125" height="120" rx="20" fill="white"/>
<path d="M35.5706 17C32.561 17 30.0804 19.4806 30.0804 22.4902V51.1992C29.9732 51.5566 29.9732 51.9284 30.0804 52.2858V97.5225C30.0804 100.532 32.561 103.013 35.5706 103.013V104.843C35.5706 106.844 37.2291 108.503 39.2307 108.503H44.7209C46.7225 108.503 48.381 106.844 48.381 104.843V103.013H77.6619V104.843C77.6619 106.844 79.3204 108.503 81.322 108.503H86.8122C88.8138 108.503 90.4723 106.844 90.4723 104.843V103.013C93.4819 103.013 95.9625 100.532 95.9625 97.5225V52.1142C96.0125 51.8712 96.0125 51.6138 95.9625 51.3708V22.4902C95.9625 19.4806 93.4819 17 90.4723 17H35.5706ZM35.5706 20.6601H90.4723C91.5017 20.6601 92.3024 21.4608 92.3024 22.4902V49.941H33.7405V22.4902C33.7405 21.4608 34.5412 20.6601 35.5706 20.6601ZM42.7193 27.9232C42.6406 27.9375 42.562 27.9589 42.4905 27.9803C41.6398 28.1734 41.0393 28.9383 41.0608 29.8104V42.6208C41.0536 43.2785 41.3968 43.8933 41.9686 44.2292C42.5405 44.5581 43.2411 44.5581 43.813 44.2292C44.3849 43.8933 44.728 43.2785 44.7209 42.6208V29.8104C44.7423 29.2814 44.5279 28.7738 44.149 28.4164C43.763 28.0518 43.2411 27.8731 42.7193 27.9232ZM33.7405 53.6011H92.3024V97.5225C92.3024 98.5519 91.5017 99.3526 90.4723 99.3526H35.5706C34.5412 99.3526 33.7405 98.5519 33.7405 97.5225V53.6011ZM42.7193 59.0341C42.6406 59.0484 42.562 59.0699 42.4905 59.0913C41.6398 59.2843 41.0393 60.0492 41.0608 60.9214V73.7318C41.0536 74.3894 41.3968 75.0042 41.9686 75.3402C42.5405 75.6691 43.2411 75.6691 43.813 75.3402C44.3849 75.0042 44.728 74.3894 44.7209 73.7318V60.9214C44.7423 60.3924 44.5279 59.8848 44.149 59.5274C43.763 59.1628 43.2411 58.9841 42.7193 59.0341ZM39.2307 103.013H44.7209V104.843H39.2307V103.013ZM81.322 103.013H86.8122V104.843H81.322V103.013Z" fill="black"/>
</svg>
