<svg width="236" height="236" viewBox="0 0 236 236" fill="none" xmlns="http://www.w3.org/2000/svg">
<path d="M235.224 117.612C235.224 52.8078 182.416 0 117.612 0C52.8078 0 0 52.8078 0 117.612C0 151.72 14.7015 182.416 37.9887 203.939C37.9887 204.057 37.9887 204.057 37.8711 204.175C39.0472 205.351 40.4585 206.292 41.6347 207.35C42.3403 207.938 42.9284 208.526 43.6341 208.997C45.7511 210.761 48.1033 212.407 50.338 214.054C51.1612 214.642 51.8669 215.112 52.6902 215.701C54.9248 217.229 57.2771 218.641 59.7469 219.935C60.5702 220.405 61.5111 220.993 62.3344 221.463C64.6866 222.757 67.1565 223.933 69.7439 224.992C70.6848 225.462 71.6257 225.933 72.5666 226.286C75.1541 227.344 77.7416 228.285 80.329 229.108C81.2699 229.461 82.2108 229.814 83.1517 230.049C85.9744 230.872 88.7971 231.578 91.6198 232.284C92.4431 232.519 93.2664 232.754 94.2073 232.872C97.5004 233.578 100.794 234.048 104.204 234.401C104.675 234.401 105.145 234.518 105.616 234.636C109.614 234.989 113.613 235.224 117.612 235.224C121.611 235.224 125.61 234.989 129.491 234.636C129.961 234.636 130.432 234.518 130.902 234.401C134.313 234.048 137.606 233.578 140.899 232.872C141.723 232.754 142.546 232.401 143.487 232.284C146.309 231.578 149.25 230.99 151.955 230.049C152.896 229.696 153.837 229.343 154.777 229.108C157.365 228.167 160.07 227.344 162.54 226.286C163.481 225.933 164.422 225.462 165.363 224.992C167.832 223.933 170.302 222.757 172.772 221.463C173.713 220.993 174.536 220.405 175.36 219.935C177.712 218.523 180.064 217.229 182.416 215.701C183.24 215.23 183.945 214.642 184.769 214.054C187.121 212.407 189.355 210.761 191.472 208.997C192.178 208.409 192.766 207.82 193.472 207.35C194.766 206.292 196.059 205.233 197.235 204.175C197.235 204.057 197.235 204.057 197.118 203.939C220.523 182.416 235.224 151.72 235.224 117.612ZM175.712 176.065C143.84 154.66 91.6198 154.66 59.5117 176.065C54.3368 179.476 50.1027 183.475 46.5744 187.826C28.6973 169.714 17.6418 144.898 17.6418 117.612C17.6418 62.452 62.452 17.6418 117.612 17.6418C172.772 17.6418 217.582 62.452 217.582 117.612C217.582 144.898 206.527 169.714 188.65 187.826C185.239 183.475 180.887 179.476 175.712 176.065Z" fill="black"/>
<path d="M117.612 57.9791C93.2663 57.9791 73.5075 77.7379 73.5075 102.084C73.5075 125.959 92.2078 145.365 117.024 146.071H118.082H118.906H119.141C142.899 145.247 161.599 125.959 161.717 102.084C161.717 77.7379 141.958 57.9791 117.612 57.9791Z" fill="black"/>
</svg>
