<svg width="41" height="41" viewBox="0 0 41 41" fill="none" xmlns="http://www.w3.org/2000/svg">
<path d="M40.6013 16.4851H38.95V16.4H20.5V24.6H32.0856C30.3954 29.3734 25.8536 32.8 20.5 32.8C13.7073 32.8 8.2 27.2927 8.2 20.5C8.2 13.7073 13.7073 8.2 20.5 8.2C23.6355 8.2 26.4881 9.38285 28.66 11.315L34.4585 5.51655C30.7971 2.10432 25.8997 0 20.5 0C9.17887 0 0 9.17887 0 20.5C0 31.8211 9.17887 41 20.5 41C31.8211 41 41 31.8211 41 20.5C41 19.1255 40.8585 17.7838 40.6013 16.4851Z" fill="#FFC107"/>
<path d="M2.36365 10.9583L9.09892 15.8978C10.9214 11.3857 15.335 8.2 20.5 8.2C23.6355 8.2 26.4881 9.38285 28.66 11.315L34.4585 5.51655C30.7971 2.10433 25.8997 0 20.5 0C12.6259 0 5.7974 4.44543 2.36365 10.9583Z" fill="#FF3D00"/>
<path d="M20.5 41C25.7951 41 30.6065 38.9736 34.2442 35.6782L27.8995 30.3093C25.8413 31.8683 23.2829 32.8 20.5 32.8C15.1679 32.8 10.6405 29.4001 8.93491 24.6554L2.24986 29.806C5.64261 36.4449 12.5327 41 20.5 41Z" fill="#4CAF50"/>
<path d="M40.6013 16.4851H38.95V16.4H20.5V24.6H32.0856C31.2738 26.893 29.7988 28.8702 27.8964 30.3103C27.8974 30.3093 27.8984 30.3093 27.8995 30.3083L34.2442 35.6772C33.7953 36.0851 41 30.75 41 20.5C41 19.1255 40.8585 17.7838 40.6013 16.4851Z" fill="#1976D2"/>
</svg>
