<svg width="54" height="38" viewBox="0 0 54 38" fill="none" xmlns="http://www.w3.org/2000/svg">
<path d="M53.6081 12.668L48.302 2.50662C47.8801 1.70729 47.1628 1.10427 46.3028 0.825986C45.4429 0.547702 44.5083 0.616147 43.6981 1.01674L38.6752 3.52809H35.1396L28.0202 0.306668C27.2694 -0.032661 26.4221 -0.0925539 25.6311 0.137791L15.1297 3.19928L10.3021 0.785488C9.49181 0.385161 8.55729 0.316848 7.69742 0.595085C6.83754 0.873322 6.12019 1.47614 5.69803 2.27526L0.391927 12.4369C0.179781 12.8433 0.0506935 13.2878 0.0121957 13.7446C-0.0263021 14.2014 0.026561 14.6613 0.167701 15.0975C0.30884 15.5337 0.53543 15.9373 0.834248 16.285C1.13307 16.6326 1.49813 16.9173 1.90814 17.1224L7.08635 19.7115L18.7434 28.8269C19.124 29.1252 19.5634 29.3398 20.0327 29.4564L32.5374 32.5826C32.8087 32.6504 33.0873 32.6847 33.367 32.6846C34.2846 32.6848 35.1651 32.3218 35.816 31.6749L43.7552 23.7354C43.7636 23.7269 43.7712 23.7177 43.7794 23.7091C43.7903 23.6978 43.8008 23.6862 43.8115 23.6745C43.8231 23.6617 43.8354 23.6496 43.8467 23.6364L47.0716 19.8638L52.0918 17.3536C52.5019 17.1485 52.8669 16.8639 53.1657 16.5162C53.4646 16.1685 53.6912 15.7649 53.8323 15.3287C53.9734 14.8925 54.0263 14.4326 53.9878 13.9758C53.9493 13.519 53.8202 13.0744 53.6081 12.668ZM42.2593 20.1805L34.0564 14.2147C33.7579 13.9975 33.3977 13.8818 33.0285 13.8845C32.6594 13.8872 32.3009 14.0082 32.0056 14.2297L29.244 16.3011C28.3459 16.9692 27.2563 17.33 26.137 17.33C25.0176 17.33 23.928 16.9692 23.03 16.3011L21.8606 15.4239L30.304 6.98023H34.7582C34.7609 6.98024 34.7635 6.98066 34.7663 6.98066L34.7721 6.98023H38.0364L43.9168 18.2415L42.2593 20.1805ZM8.75827 3.87311L12.5743 5.78113L7.26818 15.9428L3.45216 14.0347L8.75827 3.87311ZM33.3748 29.2337L20.87 26.1076L10.2084 17.7705L16.0848 6.51663L26.5973 3.45192L28.2586 4.20364C28.1186 4.30555 27.9864 4.41773 27.863 4.53925L19.4194 12.9829C19.0697 13.3327 18.7992 13.7535 18.6263 14.2168C18.4533 14.6802 18.382 15.1753 18.417 15.6686C18.4521 16.162 18.5928 16.642 18.8295 17.0762C19.0662 17.5105 19.3935 17.8888 19.7891 18.1856L20.9587 19.0627C22.4555 20.1763 24.2714 20.7778 26.137 20.7778C28.0025 20.7778 29.8184 20.1763 31.3152 19.0627L33.057 17.7564L39.8858 22.7227L33.3748 29.2337ZM50.5478 14.266L46.7318 16.174L41.4257 6.01237L45.2417 4.10446L50.5499 14.2648L50.5478 14.266ZM25.2223 35.8791C25.1676 36.0991 25.07 36.3062 24.9351 36.4885C24.8003 36.6707 24.6308 36.8246 24.4363 36.9413C24.2419 37.0579 24.0263 37.1351 23.802 37.1683C23.5777 37.2015 23.3491 37.1901 23.1292 37.1348L16.6263 35.5093C16.0987 35.3766 15.6097 35.1218 15.1986 34.7655L10.3331 30.5361C9.98755 30.2358 9.77548 29.8105 9.74351 29.3538C9.71154 28.8972 9.8623 28.4465 10.1626 28.101C10.4629 27.7555 10.8882 27.5434 11.3448 27.5114C11.8015 27.4795 12.2522 27.6302 12.5977 27.9305L17.4636 32.1602L23.9665 33.7859C24.1864 33.8409 24.3934 33.9386 24.5755 34.0736C24.7576 34.2085 24.9114 34.378 25.028 34.5724C25.1446 34.7667 25.2218 34.9822 25.2551 35.2064C25.2885 35.4306 25.2773 35.6592 25.2223 35.8791Z" fill="black"/>
</svg>
