<svg width="116" height="112" viewBox="0 0 116 112" fill="none" xmlns="http://www.w3.org/2000/svg">
<path d="M69.5135 22.6159C70.8985 21.0325 74.1603 19.0423 78.798 16.9092C83.3001 14.8386 88.6883 12.8111 93.9067 11.0207C99.1159 9.23372 104.109 7.69919 107.803 6.61051C108.56 6.38758 109.261 6.18361 109.899 6C109.773 6.72742 109.632 7.53664 109.476 8.41432C108.777 12.3554 107.785 17.6724 106.616 23.1877C105.446 28.7126 104.106 34.3925 102.714 39.0755C102.017 41.4192 101.319 43.4695 100.638 45.1069C99.9328 46.8043 99.3335 47.8365 98.908 48.323C98.1802 49.1551 96.5909 49.8341 93.8512 50.0173C91.2234 50.1932 88.0908 49.8762 84.9937 49.3313C81.9204 48.791 79.003 48.0492 76.8442 47.438C75.7682 47.1336 74.8877 46.8636 74.2797 46.6709C74.2751 46.6691 74.2702 46.6677 74.2653 46.6663C73.963 46.1376 73.5386 45.3733 73.0499 44.4318C72.0563 42.5174 70.816 39.9033 69.7975 37.0652C68.771 34.2051 68.0176 31.2462 67.9046 28.6104C67.7915 25.9637 68.3322 23.9668 69.5135 22.6159Z" stroke="#27AE60" stroke-width="8.26103"/>
<path d="M95.9304 20.5779C95.9304 20.5779 71.961 41.2367 64.1489 64.3242" stroke="#27AE60" stroke-width="11.0147" stroke-linecap="round" stroke-linejoin="round"/>
<path d="M51.8675 33.723C50.9452 32.6572 48.6509 31.2164 45.2048 29.6148C41.8939 28.076 37.9198 26.564 34.0569 25.225C30.2032 23.8888 26.5078 22.7412 23.7726 21.9267C23.5982 21.8747 23.4279 21.8242 23.2615 21.775C23.3043 22.0222 23.3489 22.2785 23.3956 22.5432C23.9138 25.4946 24.6482 29.4751 25.5139 33.6023C26.3814 37.7393 27.3715 41.9802 28.398 45.4685C28.912 47.2147 29.4224 48.7292 29.9157 49.9281C30.4342 51.1881 30.8464 51.8797 31.0886 52.1595C31.446 52.5724 32.3876 53.0614 34.3666 53.1952C36.2357 53.3216 38.4969 53.0941 40.7712 52.69C43.0212 52.2905 45.1624 51.7404 46.7502 51.2861C47.4078 51.0979 47.9657 50.928 48.3908 50.7939C48.5976 50.4231 48.8595 49.9397 49.1537 49.3671C49.8825 47.9474 50.79 46.014 51.5336 43.9209C52.2845 41.8054 52.822 39.654 52.9021 37.7663C52.9825 35.8656 52.591 34.5589 51.8675 33.723Z" stroke="#27AE60" stroke-width="8.26103"/>
<path d="M34.7646 34.0422C34.7646 34.0422 50.5225 47.2909 55.0015 62.8676" stroke="#27AE60" stroke-width="11.0147" stroke-linecap="round" stroke-linejoin="round"/>
<path d="M20.6742 74.1082H17.1635V79.0621L21.8377 77.4205L20.6742 74.1082ZM42.626 69.6088L43.3808 66.1803L43.3197 66.1666L43.2579 66.1553L42.626 69.6088ZM62.6964 74.0271L63.7496 70.6778L63.6022 70.6315L63.4512 70.5985L62.6964 74.0271ZM65.7283 86.2113L65.9112 82.7052L65.8406 82.7017L65.77 82.701L65.7283 86.2113ZM49.5253 86.019L49.567 82.5086L48.907 89.4749L49.5253 86.019ZM20.6742 100.973L20.5535 97.4642L17.1635 97.5811V100.973H20.6742ZM20.6742 107.666V111.176H24.1849V107.666H20.6742ZM3.51071 107.666H0V111.176H3.51071V107.666ZM3.51071 69.0478V65.5371H0V69.0478H3.51071ZM20.6742 69.0478H24.1849V65.5371H20.6742V69.0478ZM31.4711 66.4039C29.8509 67.1289 23.8711 69.2641 19.5108 70.7958L21.8377 77.4205C26.0186 75.952 32.3768 73.6907 34.3379 72.8138L31.4711 66.4039ZM42.626 69.6088C43.2579 66.1553 43.2583 66.1553 43.2579 66.1553C43.2576 66.1553 43.2586 66.1557 43.2579 66.1553C43.2572 66.1553 43.2544 66.1546 43.2534 66.1546C43.2513 66.1543 43.2488 66.1539 43.246 66.1532C43.2404 66.1522 43.2334 66.1511 43.2242 66.1494C43.2063 66.1462 43.1821 66.142 43.1516 66.1364C43.0901 66.1259 43.0041 66.1111 42.896 66.0932C42.6797 66.0574 42.3739 66.0093 42.0001 65.9559C41.2565 65.8496 40.2261 65.7211 39.0897 65.6347C37.9638 65.5494 36.6694 65.5002 35.4154 65.5712C34.2315 65.6382 32.7627 65.8264 31.4711 66.4039L34.3379 72.8138C34.4576 72.7601 34.9095 72.6326 35.8131 72.5814C36.6462 72.5343 37.6061 72.5638 38.5578 72.6361C39.499 72.7077 40.3697 72.8159 41.0079 72.9068C41.3253 72.9521 41.5802 72.9925 41.7526 73.0209C41.8382 73.0349 41.9032 73.0462 41.9446 73.0535C41.9653 73.0571 41.9797 73.0595 41.9881 73.0613C41.9923 73.062 41.9951 73.0623 41.9962 73.0627C41.9958 73.0627 41.9965 73.063 41.9962 73.0627C41.9958 73.0627 41.9944 73.0623 42.626 69.6088ZM63.4512 70.5985L43.3808 66.1803L41.8716 73.0374L61.9416 77.4556L63.4512 70.5985ZM72.4179 72.0941C70.4151 72.0941 68.2549 71.7528 66.5284 71.3831C65.6802 71.2013 64.9692 71.0201 64.4753 70.886C64.2292 70.819 64.0386 70.7639 63.9139 70.7273C63.8514 70.7087 63.8058 70.6951 63.7781 70.6866C63.764 70.6824 63.7542 70.6796 63.7496 70.6778C63.7493 70.6778 63.75 70.6778 63.7496 70.6778C63.75 70.6778 63.7496 70.6778 62.6964 74.0271C61.6432 77.3759 61.6439 77.3763 61.6442 77.3763C61.6439 77.3763 61.6446 77.3763 61.6442 77.3763C61.645 77.3766 61.6467 77.377 61.6478 77.3773C61.6495 77.378 61.6516 77.3787 61.6541 77.3794C61.659 77.3808 61.665 77.3826 61.6723 77.3851C61.6867 77.3896 61.706 77.3952 61.7299 77.4026C61.778 77.4174 61.8447 77.4374 61.9286 77.4623C62.0968 77.5118 62.3352 77.5803 62.6325 77.661C63.2265 77.8228 64.0638 78.0359 65.0584 78.2487C67.0163 78.6682 69.7171 79.1155 72.4179 79.1155V72.0941ZM73.1787 87.0006C75.4298 85.4228 77.3986 82.6002 78.1207 79.9661C78.4735 78.6791 78.7214 76.7243 77.7166 74.9188C76.5465 72.8166 74.3906 72.0941 72.4179 72.0941V79.1155C72.63 79.1155 72.5478 79.1531 72.3193 79.0428C72.05 78.9133 71.7674 78.6679 71.5813 78.3333C71.2741 77.7811 71.5044 77.5427 71.3489 78.1104C71.2239 78.5668 70.929 79.1994 70.474 79.8485C70.0183 80.498 69.5279 80.9849 69.1488 81.2507L73.1787 87.0006ZM65.7283 86.2113C65.5457 89.7171 65.5475 89.7175 65.5492 89.7175C65.5517 89.7178 65.5576 89.7178 65.5601 89.7178C65.5654 89.7182 65.5703 89.7185 65.5755 89.7185C65.5864 89.7192 65.5977 89.7196 65.6092 89.72C65.6331 89.721 65.6591 89.7217 65.6875 89.7221C65.7444 89.7231 65.8108 89.7235 65.8862 89.7224C66.0368 89.7203 66.2236 89.7119 66.4437 89.6926C66.884 89.6539 67.4555 89.5697 68.1324 89.3977C69.4939 89.0508 71.2446 88.356 73.1787 87.0006L69.1488 81.2507C67.9365 82.1003 66.9693 82.4482 66.3999 82.5932C66.1113 82.6666 65.914 82.6908 65.8266 82.6985C65.7827 82.7024 65.7662 82.702 65.7795 82.7017C65.7862 82.7017 65.8002 82.7017 65.822 82.702C65.8329 82.7024 65.8459 82.7027 65.8606 82.7031C65.868 82.7034 65.8757 82.7038 65.8841 82.7041C65.8883 82.7041 65.8929 82.7045 65.8971 82.7045C65.8996 82.7048 65.9017 82.7048 65.9042 82.7048C65.9052 82.7052 65.9105 82.7052 65.9112 82.7052C65.9129 82.7052 65.9112 82.7052 65.7283 86.2113ZM49.4835 89.5293L65.6875 89.7221L65.77 82.701L49.567 82.5086L49.4835 89.5293ZM69.1758 85.3547C66.7162 85.209 62.0329 84.5304 57.8021 83.8539C55.7217 83.5214 53.8052 83.1984 52.4079 82.9583C51.71 82.8382 51.1423 82.7393 50.7498 82.6704C50.5536 82.636 50.4012 82.609 50.2983 82.5907C50.2471 82.5816 50.2077 82.5746 50.1818 82.57C50.1688 82.5676 50.159 82.5658 50.1526 82.5648C50.1495 82.5641 50.147 82.5637 50.1456 82.5634C50.1449 82.5634 50.146 82.5634 50.1456 82.5634C50.1456 82.5634 50.1435 82.563 49.5253 86.019C48.907 89.4749 48.9067 89.4749 48.907 89.4749C48.906 89.4749 48.9074 89.4753 48.907 89.4749C48.9091 89.4753 48.9148 89.4763 48.9186 89.477C48.9256 89.4781 48.9362 89.4802 48.9502 89.4826C48.9779 89.4875 49.0187 89.4946 49.0717 89.504C49.1784 89.523 49.3343 89.5507 49.5344 89.5858C49.9346 89.6561 50.5111 89.7568 51.2192 89.8783C52.6347 90.1216 54.5793 90.4495 56.6934 90.7876C60.8515 91.4521 65.8894 92.1939 68.7612 92.3639L69.1758 85.3547ZM80.1675 81.8135C77.5478 82.8681 75.2089 83.8079 73.1952 84.4721C71.0737 85.1718 69.8 85.3916 69.1758 85.3547L68.7612 92.3639C70.8374 92.4867 73.2299 91.8541 75.3943 91.1404C77.6661 90.3908 80.2317 89.3566 82.7896 88.3269L80.1675 81.8135ZM96.3164 76.5576C91.0538 77.4117 85.1004 79.8275 80.1675 81.8135L82.7896 88.3269C87.9423 86.2524 93.1101 84.1913 97.4412 83.4884L96.3164 76.5576ZM107.523 92.5963C110.306 89.7951 110.718 85.1746 108.889 81.6723C106.819 77.7077 102.312 75.5844 96.3164 76.5576L97.4412 83.4884C101.167 82.8835 102.305 84.232 102.665 84.9219C103.267 86.0744 102.895 87.2923 102.542 87.6469L107.523 92.5963ZM73.6056 110.151C76.0269 109.281 83.5806 105.792 90.76 102.219C94.3904 100.412 98.0107 98.5413 100.938 96.912C102.399 96.0986 103.72 95.328 104.795 94.6434C105.792 94.009 106.827 93.2956 107.523 92.5963L102.542 87.6469C102.547 87.642 102.518 87.6711 102.44 87.736C102.364 87.7985 102.26 87.8796 102.123 87.98C101.847 88.1819 101.482 88.4291 101.026 88.7197C100.112 89.3011 98.9238 89.9973 97.5234 90.7767C94.7278 92.3326 91.2136 94.1501 87.6312 95.9332C80.3851 99.5394 73.1998 102.836 71.2306 103.543L73.6056 110.151ZM59.7836 110.704C64.2246 111.142 69.2678 111.71 73.6056 110.151L71.2306 103.543C68.6917 104.456 65.4169 104.204 60.4727 103.716L59.7836 110.704ZM55.8505 110.348C57.179 110.447 58.4783 110.575 59.7836 110.704L60.4727 103.716C59.179 103.589 57.7972 103.452 56.3712 103.346L55.8505 110.348ZM41.2516 107.192C45.3988 108.485 49.9286 109.908 55.8505 110.348L56.3712 103.346C51.3326 102.971 47.4869 101.782 43.3422 100.489L41.2516 107.192ZM27.4348 104.359C32.8115 104.572 36.8137 105.808 41.2516 107.192L43.3422 100.489C38.8934 99.1013 34.1059 97.5959 27.7122 97.3431L27.4348 104.359ZM20.795 104.481C23.6239 104.384 26.364 104.317 27.4348 104.359L27.7122 97.3431C26.3216 97.2883 23.2788 97.3705 20.5535 97.4642L20.795 104.481ZM17.1635 100.973V107.666H24.1849V100.973H17.1635ZM20.6742 104.155H3.51071V111.176H20.6742V104.155ZM7.02142 107.666V69.0478H0V107.666H7.02142ZM3.51071 72.5585H20.6742V65.5371H3.51071V72.5585ZM17.1635 69.0478V74.1082H24.1849V69.0478H17.1635Z" fill="#333333"/>
</svg>
