<svg width="112" height="149" viewBox="0 0 112 149" fill="none" xmlns="http://www.w3.org/2000/svg">
<g opacity="0.3">
<path d="M50.3136 145.186C8.44123 84.4838 0.668945 78.2539 0.668945 55.9448C0.668945 25.3862 25.4414 0.61377 56 0.61377C86.5586 0.61377 111.331 25.3862 111.331 55.9448C111.331 78.2539 103.559 84.4838 61.6864 145.186C58.9386 149.156 53.0611 149.155 50.3136 145.186ZM56 78.9994C68.7327 78.9994 79.0546 68.6776 79.0546 55.9448C79.0546 43.212 68.7327 32.8902 56 32.8902C43.2672 32.8902 32.9454 43.212 32.9454 55.9448C32.9454 68.6776 43.2672 78.9994 56 78.9994Z" fill="black"/>
</g>
</svg>
